<svg xmlns="http://www.w3.org/2000/svg" viewBox="0 0 690.29 382.19"><defs><style>.cls-1{fill:#7ca2a5}</style></defs><g id="Layer_2" data-name="Layer 2"><g id="Layer_1-2" data-name="Layer 1"><path class="cls-1" d="M256.77 7.64a14 14 0 0124.94 0l113.34 222.19a14 14 0 01-12.47 20.36H155.9a14 14 0 01-12.47-20.36z"/><path class="cls-1" d="M550.46 139.64a14 14 0 0124.94 0l113.34 222.19a14 14 0 01-12.47 20.36H449.6a14 14 0 01-12.47-20.36z"/><path class="cls-1" d="M419.49 70.64a14 14 0 0124.94 0l113.34 222.19a14 14 0 01-12.47 20.36H318.63a14 14 0 01-12.48-20.36z"/><path class="cls-1" d="M114.88 77.64a14 14 0 0125 0l113.28 222.19a14 14 0 01-12.47 20.36H14a14 14 0 01-12.45-20.36z"/></g></g></svg>