<svg xmlns="http://www.w3.org/2000/svg" viewBox="0 0 1389.09 484.19"><defs><style>.cls-1{fill:#7ca2a5}.cls-3{fill:#9cc53b}.cls-4{fill:#406833}.cls-5{fill:#7fa55a}.cls-7{fill:#fff}</style></defs><g id="Layer_2" data-name="Layer 2"><g id="Layer_1-2" data-name="Layer 1"><path class="cls-1" d="M734.16 7.64a14 14 0 0124.94 0l113.34 222.19A14 14 0 01860 250.19H633.3a14 14 0 01-12.48-20.36z"/><path class="cls-1" d="M1027.86 139.64a14 14 0 0124.94 0l113.34 222.19a14 14 0 01-12.47 20.36H927a14 14 0 01-12.47-20.36z"/><path class="cls-1" d="M896.88 70.64a14 14 0 0125 0l113.34 222.19a14 14 0 01-12.47 20.36H796a14 14 0 01-12.47-20.36z"/><path class="cls-1" d="M592.28 77.64a14 14 0 0124.94 0l113.34 222.19a14 14 0 01-12.47 20.36H491.41a14 14 0 01-12.47-20.36z"/><path fill="#a08e8c" d="M0 355.19h1389.09v94H0z"/><path class="cls-3" d="M0 449.19h1389.09v35H0z"/><path class="cls-3" d="M0 270.09s593.66-105.45 973.35-69.39c163.23 15.5 415.74 69.39 415.74 69.39v85.1H0z"/><path class="cls-4" d="M239.08 287H9.85l44-65h-20l40-59.1h-28l78.61-116.27 78.67 116.26h-28l40 59.1h-20z"/><path class="cls-5" d="M239.08 287H124.46V46.63l78.67 116.26h-28l40 59.1h-20z"/><path class="cls-4" d="M307.48 299.55h-161.9l31.06-45.9h-14.12l28.24-41.74H171l55.56-82.12 55.57 82.12H262.3l28.24 41.74h-14.12z"/><path class="cls-5" d="M307.48 299.55h-81V129.79l55.57 82.12H262.3l28.24 41.74h-14.12z"/><path class="cls-4" d="M1384.24 275.09h-194l37.21-55h-16.91l33.83-50h-23.67l66.56-98.37 66.57 98.37h-23.72l33.84 50H1347z"/><path class="cls-5" d="M1384.24 275.09h-97V71.72l66.57 98.37h-23.72l33.84 50H1347z"/><path d="M1338.93 286.89v-1a22.64 22.64 0 00-22.56-22.73 22.28 22.28 0 00-14.1 5 22.85 22.85 0 00-4 4.09 16.7 16.7 0 00-10.15-3.41 17.2 17.2 0 00-17.1 17.05 17.06 17.06 0 000 34.11h62.22a17 17 0 005.64-33.14z" fill="#75b03a"/><path class="cls-4" d="M1253.81 301.84h-155.49l29.83-44.08h-13.56l27.12-40.09h-19l53.36-78.86 53.37 78.86h-19l27.13 40.09H1224z"/><path class="cls-5" d="M1253.81 301.84h-77.75v-163l53.37 78.86h-19l27.13 40.09H1224z"/><path class="cls-7" d="M873.37 389.23c7.74-1.34 30.53 30 30.53 30h-64.5s26.23-28.65 33.97-30z"/><path class="cls-7" d="M1198.82 367.23c7.74-1.34 30.53 30 30.53 30h-64.5s26.23-28.65 33.97-30z"/></g></g></svg>