<svg xmlns="http://www.w3.org/2000/svg" viewBox="0 0 233.63 317" version="1.0"><path d="M102.58 256.153c-2.2-.48-5.19-1.07-6.65-1.31-1.47-.23-3.56-.91-4.66-1.5-1.11-.59-4.25-1.25-6.99-1.46-5.99-.47-7.2-1.11-7.2-3.83 0-1.92-.36-2.01-5.25-1.32-2.88.41-5.92.68-6.75.59-4.79-.49-10.11-.09-11.97.91-3.65 1.95-17.87 2.88-25.13 1.64-8.57-1.47-9.9-2.63-9.9-8.72 0-5.04 1.53-6.9 5.69-6.91 1-.01 2.58-1.36 3.52-3 .93-1.65 2.4-3 3.26-3s2.4-.52 3.42-1.16c1.58-.99 1.78-2.07 1.36-7.35-.45-5.66-.29-6.34 1.85-7.84 1.29-.91 3.37-1.65 4.63-1.65 1.25 0 2.27-.45 2.27-1s-.73-1-1.63-1c-1.93 0-8.24-5.46-14.02-12.14-2.74-3.16-4.4-6.19-4.84-8.83-.66-3.91-2.6-5.31-4.07-2.93-.63 1.02-7.6.54-10.97-.75-4.16-1.59-4.21-15.46-.09-21.6 1.99-2.97 2.06-3.59.86-7.18-2.46-7.4 3.13-15.4 11.4-16.34 2.4-.27 4.36-.88 4.36-1.36s1.8-2.5 4-4.49c2.2-1.98 4.01-4.35 4.01-5.24 0-3.04 3.79-7.88 7.64-9.76 3.58-1.76 3.92-2.33 5.41-8.98 1.08-4.79 2.47-8.05 4.27-9.99 1.47-1.59 2.67-3.45 2.67-4.15 0-.69.57-1.26 1.25-1.26.69-.01 2.96-1.58 5.06-3.5 2.43-2.24 5.22-3.72 7.77-4.13 2.18-.35 4.21-1.02 4.5-1.5.3-.48 1.86-.87 3.48-.87 3.23 0 3.76-1.33 1.44-3.64-1.71-1.71-1.87-5.09-.5-10.86 1.37-5.8.58-7.29-4.3-8.04-3.65-.56-4.69-1.35-7.95-5.99-4.14-5.9-4.61-9.16-2.5-17.18.8-3.04 2.73-6.34 5.38-9.18 4.07-4.38 4.22-4.45 11.44-4.77 8.43-.37 10.04.36 16.93 7.6 7.01 7.37 13.08 8.93 35.14 9.05 1.53.01 5.11 1.84 8.5 4.35 4.82 3.56 6.18 5.24 7.64 9.45 1.66 4.8 1.67 5.55.15 12.23-.89 3.92-2.22 8.27-2.94 9.68-1.17 2.24-1.1 2.8.59 4.62 1.06 1.13 1.92 2.42 1.92 2.87s.68.81 1.5.81c.83 0 1.5.45 1.5 1 0 1.55 3 1.18 3.62-.45.31-.8-.66-3.7-2.16-6.44-2.86-5.27-2.75-8.11.34-8.11 2.23 0 5.34 3.23 7.707 8 2.515 5.07 4.491 7 7.151 7 2.067 0 2.345-.47 2.345-3.98 0-4.02-3.635-16.17-6.456-21.58-3.887-7.45-2.781-14.84 2.135-14.25 2.141.25 2.977 1.19 4.277 4.81 2.872 8 5.24 13 6.153 13 1.147 0 1.158-1.72.014-2.42-.482-.3-1.41-2.66-2.063-5.26-.652-2.59-2.463-7.43-4.023-10.76-1.559-3.33-3.101-8.22-3.425-10.86-.514-4.2-.279-5.12 1.854-7.25 5.754-5.76 13.043-1.17 16.566 10.43 1.862 6.13 2.07 8.52 1.515 17.36-.354 5.65-.791 12.89-.971 16.1-.229 4.09-1.007 6.78-2.598 9l-2.271 3.16 3.397-3.09c9.502-8.66 18.284-12.18 21.997-8.82 2.897 2.62 2.684 14.48-.363 20.17-2.467 4.62-9.769 11.18-14.699 13.23-1.713.71-2.872 1.79-2.577 2.4s.787 1.79 1.092 2.62 2.471 2.31 4.815 3.27c6.793 2.81 10.562 6.6 12.672 12.72 1.042 3.03 1.909 6.69 1.927 8.14.019 1.58.737 2.91 1.782 3.3 3.763 1.41 12.215 7.03 12.8 8.5 1.413 3.57 2.168 11.67 1.301 13.96-1.028 2.7 1.259 8.82 3.636 9.74.735.28 1.938 2.56 2.675 5.06.736 2.5 1.903 4.77 2.593 5.04 2.326.89 4.474 6.94 3.72 10.46-.931 4.35-2.209 5.8-5.119 5.8-1.588 0-2.783-.84-3.538-2.5-1.473-3.23-3.427-3.19-4.25.09-1.648 6.56-4.047 10.11-9.513 14.05-3.119 2.24-7.31 4.62-9.315 5.28-2.016.67-3.919 2.07-4.259 3.14-.339 1.07-1.003 1.94-1.476 1.94-.941 0-4.345 8.57-5.463 13.75-.577 2.68-.397 3.25 1.013 3.25.942 0 3.402.51 5.465 1.13 4.176 1.25 7.98 6.63 7.98 11.29 0 2.98-2.324 4.39-4.396 2.67-1.056-.88-1.515-.76-2.002.51-.923 2.4-6.037 1.1-10.264-2.61-3.927-3.44-4.903-3.21-10.169 2.44-2.565 2.75-4.118 3.57-6.75 3.57-1.88 0-3.419-.48-3.419-1.06 0-.6-1.397-.93-3.162-.75-2.673.26-3.272-.09-3.867-2.26-.526-1.93-.035-3.57 1.934-6.46 2.708-3.99 5.147-5.19 10.878-5.37 5.798-.17 5.897-4.96.329-15.88-2.419-4.74-5.082-6.85-10.474-8.31-4.842-1.31-14.961-8.14-17.651-11.92-2.7-3.8-4.37-13.17-3.36-18.93.44-2.51.71-5.3.61-6.21s.48-2.2 1.29-2.87 1.47-1.73 1.48-2.35c0-.62 1.35-2.7 2.99-4.63 1.65-1.92 3-3.85 3-4.28.01-1.87-3.48-1.83-7.33.07-2.29 1.14-5.41 2.38-6.93 2.75-2.88.71-6.74 5.17-6.74 7.8 0 .84.81 1.78 1.8 2.1 2.29.73 8.21 11.85 8.18 15.38-.03 3.84-4.86 12.03-9.11 15.43-2.12 1.7-5.34 3.14-7.75 3.46-2.26.31-4.12.89-4.12 1.3 0 .4-1.91 1.1-4.25 1.54-3.4.65-3.74.88-1.7 1.18 1.39.2 3.84 1.41 5.44 2.68 2.61 2.08 2.92 2.96 3.1 8.7.15 5.27-.18 6.79-1.92 8.69-2.88 3.15-1.35 5.3 5.13 7.17 5 1.45 6.15 2.78 6.19 7.13.02 2.02-11.72 7.48-17.99 8.37-2.47.35-5.62.79-7 .98-1.37.19-4.3-.05-6.5-.54z"/><path d="M104.58 193.873c3.3-.67 6.5-1.62 7.11-2.11.61-.48 3.7-1.77 6.85-2.86 3.16-1.08 7.14-3.33 8.84-4.99 3.9-3.82 2.14-3.87-4.03-.13-2.62 1.59-5.89 3.22-7.27 3.63-1.37.41-3.38 1.36-4.47 2.11-1.08.75-4.32 1.37-7.19 1.37s-5.5.45-5.84 1-2.81 1-5.48 1c-5.4 0-7.66-1.53-8.6-5.82-1.04-4.71-1.26-4.78-1.34-.4-.05 2.81.41 4.47 1.32 4.82.78.29 1.64 1.45 1.94 2.56.47 1.81 1.12 1.97 6.34 1.53 3.2-.27 8.52-1.04 11.82-1.71z" fill="red"/><path d="M102.79 181.823c4.29-.59 8.69-1.44 9.79-1.88s4.59-1.56 7.75-2.48c3.17-.92 5.75-2.1 5.75-2.62s.79-.95 1.75-.95c1.07-.01 2.74-1.85 4.25-4.7 2.8-5.26 10.25-10.2 15.5-10.28 3.86-.06 8-2.16 8-4.05 0-.81-.56-1.36-1.25-1.22-.68.14-1.25-.14-1.25-.61 0-1.3-11.35-6.14-14.37-6.14-1.88 0-4.35 1.72-8.66 6.03-8.52 8.52-11.43 9.79-24.9 10.88-9.01.72-12.15.62-15.32-.5-5.01-1.77-4.46-1.89-6.07 1.34-1.68 3.37-2.27 13.74-.73 12.78.63-.39 1.05.35 1.05 1.84 0 1.79.64 2.61 2.25 2.92 4.2.81 8.65.71 16.46-.36z" fill="red"/><path d="M48.78 173.773c-.73-1.21-3.53-4.45-6.23-7.18-3.64-3.7-5.11-4.63-5.73-3.65-1.47 2.31-1.62 5.48 4.64 11.43 3.85 3.67 8.41 5.17 9 4.58.6-.6-.84-3.78-1.68-5.18z" fill="red"/><path d="M53.01 174.143c-.05-3.01-.24-3.36-.93-1.75-1.19 2.78-1.19 5.5 0 5.5.55 0 .97-1.69.93-3.75z" fill="red"/><path d="M56.9 165.793c1.91 1.02 2.32.74 4.08-2.7 1.08-2.11 2.67-4.42 3.53-5.14 2.46-2.04 1.86-4.97-1.75-8.59-1.83-1.83-4.87-5.37-6.75-7.87-1.89-2.5-3.97-4.55-4.64-4.57-1.48-.04-8.94 10.76-9.81 14.19-.38 1.53-.09 3.03.75 3.88.76.77 3.12 4.24 5.26 7.72 3.87 6.29 3.9 6.32 5.55 4.14 1.39-1.85 1.99-2.02 3.78-1.06z" fill="red"/><path d="M44.08 141.663c0-1.56-5.16-5.2-7.43-5.24-1.16-.02-2.5-1.02-3.05-2.28-1.24-2.83-1.64-2.81-4.45.18l-2.28 2.43 6.85 3.19c3.78 1.76 7.02 3.61 7.21 4.11.41 1.1 3.15-.98 3.15-2.39z" fill="red"/><path d="M157.64 138.673c-.86-1.23-1.56-3.3-1.56-4.62 0-2.33-.16-2.38-7.11-1.99-5.61.32-7.41.82-8.54 2.37-1.33 1.82-1.2 2.01 1.86 2.69 1.81.41 5.42.94 8.03 1.19 2.6.25 5.52.92 6.5 1.49 2.498 1.46 2.567 1.36.82-1.13z" fill="red"/><path d="M172.851 26.213c-3.044-.19-6.296 1.11-5.469 4.82-.846 8.98 5.924 16.12 7.75 24.59 1.771 2.65 3.44 9.53-1.625 9.22-6.004-3.67-5.38-12.35-8.906-17.66-4.323-1.72-3.566 5.02-2.219 7.32 2.746 5.29 3.957 11.38 6.782 16.53.477 4.74 2.555 10.65-.188 14.9-5.761 2.75-11.616-3.68-13.066-8.81-1.09-1.55-3.34-4.18-4.5-4.47.46 4.46 5.63 9.57 2.44 13.78-1.1 1.41-4.52.19-2.94 2.63 1.21 2.55.22 6.96 1.72 8.56 5.543.22 10.904 2.35 16.159 3.16 3.326-2.16 2.063-7.48 4.343-10.57.769-4.24 4.023-7.08 5.313-10.96 4.434-6.12 2.318-14.88 4.035-22 .907-10.73.657-24.01-8.629-31.04-.33-.04-.67-.04-1 0z" fill="#633100"/><path d="M144.62 66.243c.25-2.12.72-5.08 1.04-6.59.74-3.53-2.7-10.32-7.1-14.03-3.64-3.06-12.74-5.27-17.45-4.24-2.49.55-18-1.74-19.93-2.93-.41-.25-.57.76-.36 2.24.2 1.48-.49 4.35-1.54 6.37-1.81 3.5-1.82 3.69-.11 4.14.98.26 2.02-.16 2.32-.92.29-.77 1.39-1.39 2.45-1.39 1.05 0 3.2-.67 4.78-1.5 3.19-1.66 7.36-2 7.36-.59 0 .5-1.79 1.22-3.99 1.59s-4.25 1.08-4.56 1.59c-.31.5-1.48.91-2.59.91-3.62 0-1.35 2.46 3.22 3.5 2.43.55 6.22 2.24 8.41 3.75s4.54 2.75 5.22 2.75 4.38 2.7 8.21 6c3.84 3.3 7.46 6 8.06 6s1.36.71 1.7 1.59c.9 2.35 4.26-3.36 4.86-8.24z" fill="red"/><path d="M177.828 248.583c.684-.65 2.484-2.16 3.998-3.35 2.738-2.15 2.755-2.24 2.957-15.51.196-12.92.134-13.36-1.92-13.67-3.953-.58-3.158-2.69.993-2.63 2.144.03 5.322-.26 7.063-.64 2.434-.54 3.164-.36 3.164.78 0 1.6-2.054 2.68-5.081 2.68-1.306 0-1.937.72-1.975 2.25-.032 1.24-.221 5.63-.422 9.75-.543 11.19.005 12.97 5.319 17.25 2.558 2.06 5.216 3.75 5.905 3.75 1.996 0 1.454-4.41-.846-6.88-3.975-4.26-.94-3.4 3.263.93 4.502 4.64 5.72 4.16 3.845-1.53-1.426-4.32-1.964-4.65-8.362-5.23-2.83-.25-5.546-.85-6.036-1.32-.516-.49.041-3.14 1.323-6.3 1.217-3 2.32-6.07 2.451-6.81.586-3.34 1.846-5.86 2.934-5.87.765-.01.697-.33-.196-.89-1.787-1.13-.558-3.1 1.937-3.1 1.068 0 1.941-.45 1.941-1s-.447-1-.993-1-.018-1.12 1.174-2.49 2.368-2.29 2.612-2.05c.245.25-.283 1.18-1.174 2.07-.89.89-1.619 1.8-1.619 2.02 0 .81 6.556-.83 8.5-2.12 4.024-2.68 6.972-5.38 5.896-5.41-.607-.01-2.325 1.11-3.819 2.5-1.493 1.38-3.184 2.22-3.758 1.87-.573-.35-1.435-.02-1.915.73-.644 1.02-.877.77-.888-.94-.013-1.86.375-2.19 1.984-1.68 1.42.45 2 .18 2-.93 0-.86.563-1.64 1.25-1.72.688-.08 1.7-.26 2.25-.39.55-.12 1.45-.29 2-.36s.325-.56-.5-1.1c-1.294-.83-1.269-.97.183-.98.925-.01 1.968-.92 2.317-2.02s1.103-2 1.675-2c.591 0 .736.76.336 1.75-1.718 4.28-1.491 4.48.877.79 2.318-3.61 2.508-4.71 2.16-12.5-.367-8.24-.581-9.43-2.712-15.17-.899-2.41-1.27-2.56-4.604-1.81-4.2.95-5.026.59-8.691-3.8-2.264-2.71-2.653-4.02-2.374-7.97.397-5.63-1.159-6.47-6.937-3.73-8.143 3.87-20.42 2.6-26.226-2.7-1.72-1.57-3.93-2.86-4.91-2.86-.981 0-2.561-.86-3.511-1.91-2.165-2.39-5.266-3.53-13.886-5.09-6.29-1.14-6.91-1.1-8.22.63-2.02 2.67-1.81 3.37.98 3.37 1.35 0 3.71.54 5.25 1.19 3.36 1.43 14.293 7.93 14.293 8.5 0 .62-8.943 17.29-10.763 20.07-1.02 1.57-1.76 5.45-2.04 10.72-.39 7.52-.2 8.66 2.17 12.7 3.16 5.39 7.18 9.37 8.05 7.96.34-.56-.17-1.47-1.15-2.02-1.52-.87-1.42-.99.73-.85 3.12.2 5.383 2.3 4.62 4.29-.851 2.22 4.145 4.37 5.549 2.39.838-1.19.925-1.14.48.25-.577 1.8.174 2.18 6.569 3.25 3.982.67 5.787 2.31 3.856 3.51-.885.55-.743 1.66.557 4.39.958 2.01 2.07 3.65 2.47 3.65 1.449 0 2.059 8 .882 11.56-1.043 3.16-1.495 3.53-3.685 2.98-4.221-1.06-8.733 1.12-11.122 5.37-2.667 4.74-2.679 5.09-.173 5.09 1.1 0 2-.53 2-1.17 0-1.48 2.986-4.83 4.31-4.83.55 0 .202.88-.773 1.96-1.199 1.33-1.569 2.78-1.143 4.47.584 2.33.833 2.43 3.369 1.31 1.505-.67 3.297-1.75 3.982-2.4z" fill="#ffce31"/><path d="M193.083 210.303c0-.58.45-1.06 1-1.06s1 .2 1 .44c0 .25-.45.72-1 1.06s-1 .14-1-.44z"/><path d="M162.583 207.243c-.34-.55-.141-1 .441-1 .583 0 1.059.45 1.059 1s-.198 1-.441 1c-.242 0-.719-.45-1.059-1z"/><path d="M151.59 199.393c-.9-2.33.18-2.46 2.34-.3 1.94 1.94 1.95 2.01.11 1.87-1.05-.08-2.15-.78-2.45-1.57z"/><path d="M149.58 194.243c-.34-.55-.14-1 .44-1 .59 0 1.06.45 1.06 1s-.2 1-.44 1-.72-.45-1.06-1z"/><path d="M88.08 250.353c0-.49-.74-1.18-1.64-1.52-1.37-.53-1.43-.38-.38.89 1.44 1.73 2.02 1.91 2.02.63z" fill="#fff"/><path d="M105.08 248.243c0-.55-1.01-.97-2.25-.93-2.14.07-2.16.11-.25.93 1.1.47 2.12.89 2.25.93.14.04.25-.38.25-.93z" fill="#fff"/><path d="M119.51 247.373c.29-.48-1.59-.67-4.19-.42-6.89.67-7.47 1.12-1.55 1.21 2.86.05 5.44-.31 5.74-.79z" fill="#fff"/><path d="M64.69 243.513c-.33-.33-.57.26-.53 1.32.05 1.16.29 1.4.61.6.29-.72.25-1.59-.08-1.92z" fill="#fff"/><path d="M128.15 243.663c.86-1.03.38-.99-1.97.18-1.7.85-3.1 1.7-3.1 1.88 0 .82 4.05-.83 5.07-2.06z" fill="#fff"/><path d="M79.47 240.743c.49-2.19.4-2.59-.34-1.5-.56.83-1.02 2.36-1.03 3.42-.02 2.56.55 1.76 1.37-1.92z" fill="#fff"/><path d="M95.05 240.743c0-.55-.43-.32-.97.5-.53.83-.97 1.95-.97 2.5s.44.33.97-.5c.54-.82.97-1.95.97-2.5z" fill="#fff"/><path d="M29.22 240.703c-1.85-.8-3.88-1.42-4.5-1.38-1.58.12 4.52 2.83 6.36 2.84.83 0-.01-.65-1.86-1.46z" fill="#fff"/><path d="M52.58 239.243c.34-.55.17-1-.38-1s-1.28.45-1.62 1-.16 1 .39 1 1.27-.45 1.61-1z" fill="#fff"/><path d="M106.08 238.183c0-.58-.45-.78-1-.44s-1 .82-1 1.06.45.44 1 .44 1-.47 1-1.06z" fill="#fff"/><path d="M88.08 237.123c0-.73.59-.64 1.69.25 1.5 1.22 1.61 1.15 1-.63-.63-1.83-.58-1.86.65-.28 1.01 1.3 1.61 1.43 2.5.55.64-.64 1.16-.78 1.16-.32 0 .47.79-.04 1.75-1.14 3.26-3.72 8.82-5.66 13.12-4.57 2.85.72 4.49.63 6.39-.36 2.35-1.24 2.51-1.19 2.03.64-.29 1.09-.94 1.98-1.46 1.98s-.62-.52-.23-1.15c.45-.73.27-.88-.49-.41-.93.57-.93 1.07-.02 2.16 1.25 1.52 2.99.71 5.59-2.6 1.76-2.23 2.63-8.09 1.39-9.33-.59-.59-1.07-1.78-1.07-2.65 0-1.35-4.65-5.02-6.37-5.02-.3 0-1.03.89-1.61 1.98-.87 1.62-.78 1.87.47 1.39 1.11-.43 1.36-.14.92 1.02-.34.89-1.14 1.61-1.78 1.61s-2.82.89-4.85 1.98c-3.08 1.65-5.99 2.03-17.49 2.25l-13.79.27.04-2.71c.03-2.4-.26-2.65-2.5-2.16-4.96 1.1-9.48 7.86-7.27 10.87 3.19 4.35 20.23 9.72 20.23 6.38z" fill="#fff"/><path d="M120.08 228.803c0-1.76.6-2.01 1.46-.63.32.51.12 1.22-.44 1.56-.56.35-1.02-.07-1.02-.93z" fill="#fff"/><path d="M67.1 232.273c-.56-1.04-1.02-2.76-1.02-3.83 0-1.41-1.68-2.65-6.25-4.64-8.7-3.78-12.81-5.9-13.49-6.98-.32-.5.12-.65.98-.32 1.05.41 1.75-.1 2.13-1.53.3-1.18.37-2.33.14-2.55-1.12-1.13-9.47-1.27-11.48-.19-2.03 1.09-2.19 1.7-1.61 6.12.86 6.49 1.42 7.75 3.41 7.76 4.36.03 9.21 1.11 11.41 2.55 1.33.87 2.8 1.25 3.25.84.46-.42.51-.2.11.49-1.41 2.46.5 3.42 3.25 1.63 2.01-1.31 2.35-1.36 1.41-.21-1.7 2.08-.91 2.57 4.3 2.67 4.1.08 4.39-.07 3.46-1.81z" fill="#fff"/><path d="M34.4 230.633c-.46-1.22-.77-1.27-1.39-.27-.94 1.52-.18 3.15 1.1 2.37.49-.31.62-1.25.29-2.1z" fill="#fff"/><path d="M104.04 212.373c.3-.45 3.47-1.23 7.04-1.74 3.58-.51 6.43-1.37 6.34-1.91s1.98-.98 4.59-.98c3.63 0 5.8-.71 9.16-3 5.74-3.9 6.35-4.5 8.28-8.25 3.09-5.97 1.99-12.2-3.21-18.25-2.86-3.33-3.09-3.42-4.79-1.76-1.49 1.46-1.56 1.95-.43 3 .9.84 1.13.87.69.08-.36-.65-.2-1.46.36-1.81.56-.34 1.01.23 1.01 1.27 0 4.3-13.89 13.52-22.47 14.91-1.94.32-3.53.91-3.53 1.32 0 1.01-18.51 3.28-20.82 2.55-1.01-.32-3.6-.77-5.76-1-8.82-.93-25.27-8.15-33.87-14.88-6.21-4.86-12.55-11.75-12.48-13.55.06-1.25.27-1.16.93.37.69 1.61.88 1.26.93-1.75.05-2.7-.35-3.75-1.43-3.75-1.17 0-1.5 1.35-1.5 6.14 0 6.59-1.39 8.77-5.64 8.83-3.87.06-4.43 5-1.27 11.19 3.36 6.6 15.91 18.58 18.06 17.25.47-.29.85-.05.85.53 0 .59.34.97.75.86.42-.12 3 .82 5.75 2.09 3.18 1.45 7.52 2.43 11.89 2.67 3.79.21 7.1.6 7.37.86.81.81 32.63-.43 33.2-1.29z" fill="#fff"/><path d="M127.25 203.373c-1.07-.68-1.01-.98.3-1.48.96-.36 1.38-.21 1.03.36-.34.55-.19.99.34.99.52 0 1.23-.74 1.58-1.64s.91-1.37 1.25-1.03c.65.65-1.46 3.68-2.54 3.66-.34-.01-1.23-.4-1.96-.86z"/><path d="M134.16 197.833c-.04-1.06.2-1.65.53-1.32s.37 1.2.08 1.92c-.32.8-.56.56-.61-.6z"/><path d="M34.24 196.243c0-1.37.23-1.94.51-1.25.27.69.27 1.81 0 2.5-.28.69-.51.13-.51-1.25z" fill="#fff"/><path d="M31.08 193.803c0-.24.45-.72 1-1.06s1-.14 1 .44c0 .59-.45 1.06-1 1.06s-1-.2-1-.44z" fill="#fff"/><path d="M231.985 192.323c.851-.54 1.441-2.73 1.5-5.6.092-4.39-.207-4.97-4.402-8.59-2.475-2.14-3.907-3.88-3.182-3.89 1.481 0 .596-4.24-1.014-4.85-.513-.2-1.343-1.44-1.844-2.75-1.206-3.18-4.429-3.31-3.609-.15a450.78 450.78 0 011.814 7.5c.79 3.37 1.752 5.25 2.688 5.25 1.169 0 1.106.39-.316 1.96-1.207 1.33-1.57 2.77-1.136 4.5.81 3.23 2.322 3.25 3.781.04 1.274-2.79 3.443-3.5 2.312-.75-1.569 3.81-1.678 5.32-.489 6.76 1.428 1.72 1.964 1.8 3.897.57z" fill="#ffce31"/><path d="M76.08 185.993c-.01-3.14-.28-3.35-8.23-6.44-4.52-1.75-8.28-3.1-8.35-3-.08.11-.43 1.43-.8 2.95-.59 2.47-.27 2.92 3.11 4.37 2.08.89 5.57 2.46 7.77 3.48 5.6 2.61 6.5 2.42 6.5-1.36z" fill="#fff"/><path d="M83.74 183.973c-.27-.67-.48.12-.46 1.77s.24 2.21.5 1.23c.25-.97.23-2.32-.04-3z"/><path d="M14.58 182.243c-.39-.64.64-.81 2.79-.47 4.26.68 6.25-1.31 5.27-5.27-.37-1.52-.89-4.11-1.14-5.76-.45-2.92-.42-2.91.81.41 1.69 4.52 3.87 5.82 7.2 4.31 2.2-1.01 2.57-1.81 2.57-5.63 0-3.86-.57-5.09-4.25-9.08-4.47-4.86-5.79-5.29-12.25-4-3.49.7-3.84.61-2.76-.69.69-.83.91-1.87.5-2.32-.4-.45-.12-.46.62-.03.75.43 3.08.87 5.17.97 2.65.13 5.12 1.23 8.14 3.63 5.91 4.71 9.05 4.32 11.16-1.37.85-2.31 1.68-5.35 1.84-6.77.4-3.45-2.65-7.92-5.44-7.96-1.22-.02-3.35-.68-4.73-1.47-4.72-2.7-10.53-1.81-16.65 2.53-2.68 1.9-4.1 9.69-2.36 12.94.96 1.8.86 2.54-.56 4.12-.96 1.05-1.39 1.91-.96 1.91s.21.69-.48 1.52c-3.41 4.11-2.91 15.28.81 18.23 1.89 1.49 5.59 1.68 4.7.25z" fill="#fff"/><path d="M12.08 180.243c.83-.53 1.95-.97 2.5-.97s.33.44-.5.97c-.82.54-1.95.97-2.5.97s-.32-.43.5-.97z" fill="#fff"/><path d="M80.09 174.493c.01-1.51.69-4.99 1.52-7.72 1.84-6.06 1.52-7.07-2.45-7.86-1.7-.34-4.4-1.59-5.99-2.76-1.59-1.18-3.36-1.86-3.93-1.5-1.24.76-6.68 10.24-7.56 13.17-.53 1.78.25 2.45 5.64 4.77 3.45 1.49 6.94 3.11 7.76 3.62 3.03 1.85 5 1.17 5.01-1.72z" fill="#fff"/><path d="M52.75 171.993c-.28-.69-.51-.12-.51 1.25 0 1.38.23 1.94.51 1.25.27-.69.27-1.81 0-2.5z"/><path d="M215.202 164.993c.065-.69.045-1.81-.044-2.5s.307-1.25.882-1.25c.574 0 1.043.52 1.043 1.16 0 2.97 3.986-2.88 4.559-6.7.909-6.06-.974-11.11-4.892-13.12-1.742-.89-3.392-1.94-3.667-2.33s-1.569-1.27-2.877-1.96c-2.707-1.43-4.08-.23-4.107 3.6-.009 1.18-1.321 3.54-2.917 5.25-2.76 2.95-2.796 3.1-.74 3.1 1.188 0 2.722-.9 3.409-2s1.808-1.96 2.491-1.92c.953.06.946.2-.034.59-1.67.67-4.225 6.86-4.225 10.23 0 2.57 2.27 6.83 4.442 8.34 1.742 1.21 6.549.86 6.677-.49z" fill="#fff"/><path d="M111.2 161.713c4.75-.59 14.12-6.3 18.99-11.58 2.14-2.32 3.89-4.55 3.89-4.96s1.11-2.92 2.46-5.59c1.55-3.05 2.69-7.43 3.09-11.84.67-7.45.48-7.9-5.42-12.74-1.53-1.25-2.13-2.87-2.13-5.75 0-5.12-1.2-5.09-3.53.07-1.54 3.41-1.64 4.42-.57 6.13.7 1.12 1.51 4.36 1.81 7.19.41 4 .16 5.46-1.09 6.5-.89.74-1.62 1.93-1.62 2.65 0 .71-1.68 1.84-3.75 2.5-2.06.65-4.17 1.59-4.7 2.07-.52.49-2.43.88-4.25.88-1.81 0-3.3.4-3.3.89 0 1.45-10.09 11.17-11.01 10.6-.46-.28-.59-2.95-.28-5.94.53-5.18.41-5.55-2.8-8.48-1.84-1.69-3.88-3.07-4.51-3.07-1.58 0-4.4-4.46-4.4-6.96 0-1.13-.65-2.04-1.48-2.04-.81 0-5.4-1.83-10.19-4.08-5.2-2.43-9.64-3.9-11.02-3.64-2.01.39-2.3.05-2.27-2.67.03-3.66 1.74-6.23 4.49-6.75 1.65-.32 2.02-1.32 2.27-6.08.37-6.95 1.93-8.32 13.5-11.87 6.14-1.89 7.9-2.86 8.34-4.59 1.1-4.37-1.38-5.58-4.52-2.21-1.8 1.93-4.86 2.89-18.81 5.9-3.72.81-6.51 2.54-10.87 6.74-.71.69-1.66 1.26-2.12 1.27-.96.03-6.4 7.5-6.74 9.27-.13.67-.81 3.22-1.5 5.67-.71 2.5-.99 6.24-.64 8.5.87 5.65 3.56 13.85 4.95 15.04.63.55 2.9 3.48 5.03 6.5 2.14 3.03 4.59 5.92 5.45 6.42.86.51 2.55 1.91 3.76 3.11 2.76 2.76 14.66 9.47 16.8 9.47.88 0 2.38.46 3.34 1.02.95.56 4.43 1.64 7.73 2.4 5.56 1.28 7.69 1.29 17.62.05z" fill="#fff"/><path d="M100.85 160.073c.58-.58 1.65-.86 2.37-.62.75.25.3.71-1.06 1.06-1.66.44-2.05.31-1.31-.44z"/><path d="M95.35 159.643c.34-.33 1.2-.37 1.92-.08.8.32.56.55-.6.6-1.06.05-1.65-.19-1.32-.52z"/><path d="M108.84 159.583c.69-.28.96-.99.6-1.58-.4-.63-.19-.78.49-.35 1.74 1.07 1.38 2.6-.6 2.51-1.05-.04-1.25-.28-.49-.58z"/><path d="M117.68 156.843c.65-1.68 3.4-2.98 3.4-1.6 0 .51-.89 1.41-1.97 1.99-1.59.85-1.87.77-1.43-.39z"/><path d="M192.449 150.833c5.364-1.61 10.879-6.61 12.424-11.27 1.719-5.17-1.147-17.08-4.956-20.59-4.829-4.45-9.223-5.85-15.364-4.89-2.918.46-5.946.47-6.728.04-.975-.55-2.093.11-3.548 2.07-1.169 1.58-3.434 3.17-5.034 3.52-3.318.73-5.765 3.23-8.944 9.17-2.969 5.54-2.799 7.81.784 10.36l3 2.14v-2.57c0-1.62-.556-2.57-1.5-2.57-1.717 0-2.031-2.55-.435-3.54 1.452-.9 7.935.4 7.935 1.59 0 .52-.873.95-1.941.95-2.767 0-3.21 1.28-1.796 5.2 1.945 5.39 6.057 9.9 9.838 10.8 5.374 1.26 11.193 1.12 16.265-.41z" fill="#ffce31"/><path d="M176.287 129.203c-.808-1.3-1.032-3.36-.609-5.61.538-2.87 1.364-3.85 4.257-5.06 4.241-1.77 6.203-.91 7.301 3.19.944 3.53-.363 6.06-4.133 8.01-3.896 2.02-5.292 1.91-6.816-.53z"/><path d="M181.572 121.403c-.221-.22-1.197-.1-2.167.27-1.484.57-1.535.82-.32 1.57 1.332.83 3.527-.8 2.487-1.84z"/><path d="M103.44 143.743c.32-.82 1.23-1.5 2.03-1.5 2.98 0 5.96-6.89 6.04-13.94.07-6.27-.12-6.83-3.43-10.22-1.92-1.97-4.97-3.91-6.77-4.3-2.4-.52-3.62-1.55-4.59-3.87-1.78-4.25-3.2-5.24-9.44-6.55-7.55-1.59-10.42-1.4-15.35 1.01-2.39 1.16-5.02 2.45-5.85 2.85-.82.4-1.63 1.63-1.8 2.74-.25 1.65.43 2.13 3.8 2.67 2.26.36 5.86 1.81 8 3.23 2.14 1.41 4.36 2.28 4.95 1.92.58-.36 1.05-.13 1.05.51s.7.9 1.56.57c.92-.35 1.29-.18.91.43-.41.66.29.8 1.95.38 2.27-.57 2.58-.34 2.58 1.92 0 4.03 2.01 7.41 5.17 8.72 4.44 1.84 6.83 5.54 6.83 10.57 0 4.3 1.24 5.8 2.36 2.86z" fill="#fff"/><path d="M46.08 130.483c0-1.86-.67-4.06-1.5-4.88-1.72-1.72-1.96-3.36-.5-3.36.55 0 1-.9 1-2 0-2.23-.75-2.42-4.3-1.07-3.75 1.42-6.69 6.88-5.87 10.87.85 4.15 2.65 3.78 2.74-.57.11-5.02 1.98-5.98 2.17-1.12.09 2.25.92 5.25 1.85 6.67 1.61 2.46 1.75 2.49 3.05.7.75-1.02 1.36-3.38 1.36-5.24z" fill="#ffce31"/><path d="M122.33 133.343c5.31-2.02 8.65-9.8 5.54-12.91-1.98-1.98-1.53-11.71.65-14.12 1.83-2.02 1.83-2.12.01-4.12-1.81-2-1.9-2.01-3.4-.19-2.72 3.28-7.13 5.47-9.92 4.92-2.41-.48-2.77-.1-4.31 4.49-1.61 4.8-1.6 5.14.25 8.17 1.06 1.74 1.93 3.94 1.93 4.88 0 1.16.52 1.52 1.58 1.11.95-.36 1.39-1.35 1.1-2.47-.27-1.02-.09-2.1.39-2.4s1.16.61 1.52 2.02c.35 1.41 1.52 3.19 2.6 3.94 1.32.93 1.59 1.6.82 2.08-.62.38-1.9 0-2.84-.85-2.26-2.04-3.48-1.03-4.76 3.96l-1.05 4.1 3.69-.83c2.04-.46 4.82-1.26 6.2-1.78z" fill="#ffe6d5"/><path d="M143.64 131.153c.42-.68 3.19-.97 7.19-.75 6.49.34 6.51.34 8.318-3.03.997-1.85 2.819-4.44 4.049-5.75l2.235-2.38h-2.115c-1.164 0-2.413-.48-2.776-1.07-.363-.58-1.402-.77-2.309-.41-4.012 1.6-14.312 2.46-16.362 1.37-1.79-.96-2-.88-1.44.58.36.93.65 4.13.65 7.11 0 5.1 1.02 6.82 2.56 4.33z" fill="#fff"/><path d="M171.98 116.743c.768-.75 4.659-3.98 3.303-5.61-2.029-2.46-.209-3.23.437-3.34.488-.08 1.989 1.82.702 2.96-1.983 1.77 2.446 2.46 6.352 2.48 3.939.02 4.841-1.29 3.359-4.87-1.83-4.42-14.336-8.14-15.67-4.67-.442 1.16-.941 1.22-2.413.3-3.635-2.27-8.656 4.84-7.414 10.49 1.01 4.6 7.613 5.91 11.344 2.26z" fill="#fff"/><path d="M169.313 112.053c.618-1.85 2.77-2.16 2.77-.39 0 .87-.712 1.58-1.583 1.58s-1.405-.53-1.187-1.19z"/><path d="M153.85 116.313c.95-.5 2.52-1.17 3.48-1.46 2.889-.9 2-3.39-1.5-4.21-3.82-.9-6.75-.61-8.52.84-1.78 1.46-2.88.02-1.57-2.04 1.18-1.87 9.24-2.33 12.757-.73 1.327.6 1.704.53 1.228-.24-.377-.61.293-2.02 1.489-3.14l2.175-2.02-2.903-1.23c-3.566-1.51-13.116-1.4-18.156.21-3.94 1.25-9.25 5.54-9.25 7.45 0 1.79 3.92 5.5 5.79 5.49 1.47-.02 1.5-.16.21-.99-1.22-.79-1.09-.97.67-.98 2.88-.02 5.33.97 5.33 2.16 0 .52-1.01.67-2.25.32-1.76-.49-1.92-.4-.75.42 1.87 1.3 9.43 1.4 11.77.15z" fill="#ffce31"/><path d="M146.08 115.243c0-.55.45-1 1-1s1 .45 1 1-.45 1-1 1-1-.45-1-1z"/><path d="M136.08 111.303c0-.58.45-1.06 1-1.06s1 .2 1 .44c0 .25-.45.72-1 1.06s-1 .14-1-.44z"/><path d="M109.05 112.313c1.77-3.32 1.25-9.85-.97-12.07-3.09-3.09-10-2.47-10 .91 0 .93-.51 2.21-1.14 2.84-1.96 1.96.72 6.54 4.91 8.41 4.98 2.2 5.98 2.19 7.2-.09z" fill="#ffe6d5"/><path d="M120.52 104.093c3.02-1.38 3.95-3.81 3.04-7.94-.83-3.79-4.07-5.29-7.18-3.32-2.1 1.33-2.24 1.23-2.87-2.11-.72-3.88-4.49-7.48-7.81-7.47-1.16 0-3.49.84-5.18 1.87-2.9 1.76-3.03 2.12-2.5 6.74.55 4.73.65 4.87 3.56 4.53 1.65-.19 5.57 1.88 4.21-1.33-.91-2.15 3.03-2.52 3.29 1.24.04.52-.71.94-1.57.94-1.05 0-.55.87 1.5 2.59 1.69 1.42 3.07 3.22 3.07 4 0 1.74 4.86 1.89 8.44.26z" fill="#fff"/><path d="M111.62 101.293c-.88-1.42.24-3.05 2.1-3.05.87 0 1.37.7 1.19 1.67-.39 2.01-2.39 2.85-3.29 1.38z"/><path d="M96.66 101.103c1.27-2.45 1.38-3.66.52-5.54-1.81-3.97-1.29-7.82 1.46-10.78 2.94-3.17 3-2.99-1.86-5.02l-3.7-1.54v3.39c0 4.24-1.26 5.29-8.06 6.7-2.99.62-7.37 2.24-9.74 3.61-3.99 2.29-4.29 2.75-4 6.15.29 3.55.42 3.66 3.8 3.32 4.07-.4 4.84-1.28 4.33-4.96-.36-2.65-.35-2.65.66-.33.56 1.29 1.59 2.14 2.27 1.88 1.95-.75 5.74 1.04 5.74 2.7 0 .84 1.44 1.92 3.25 2.44 1.79.52 3.35.98 3.48 1.03.12.05.95-1.32 1.85-3.05z" fill="#ffe6d5"/><path d="M133.18 101.863c-.94-1.13-.61-1.36 1.81-1.24 1.62.08 3.24.44 3.6.79.35.35 1.84.01 3.31-.76 1.48-.77 3.92-1.4 5.43-1.4 3.12-.01 3.32-.89 1.66-7.47-1.99-7.89-19.37-25.15-30.96-30.74-10.41-5.03-23.5-9.76-27.07-9.79-1.74-.01-10.52 4.6-11.37 5.97-1.1 1.79-3.29 15.7-2.84 18.06.26 1.37 1.31 3.6 2.32 4.95 1.7 2.25 2.05 2.33 4.43 1.06 2.9-1.55 3.54-3.34.83-2.33-1.5.56-1.56.43-.44-.95 1.1-1.35 1.02-1.68-.5-2.13-1-.29.22-.22 2.69.16 2.48.39 6.87.7 9.76.7 2.88 0 4.76.16 4.17.36-1.32.44 4.63 4.57 8.07 5.62 3.25.98 7 4.44 7 6.45 0 1.5 1.03 1.75 8.49 2.07 1.56.07 1.68.28.57.97-1.11.68-.29 1.98 3.77 5.95 4.8 4.71 7.92 6.9 5.27 3.7z" fill="#fff"/><path d="M131.17 96.693c.08-3.9.1-3.91.97-.97.55 1.84.52 3.35-.08 3.95-.63.63-.95-.42-.89-2.98z"/><path d="M128.75 96.583c-.37-.37-.65-1.38-.64-2.25.03-1.31.22-1.26 1.1.24 1.07 1.85.76 3.23-.46 2.01z"/><path d="M120.83 88.583c.69-.28 1.82-.28 2.5 0 .69.28.13.5-1.25.5-1.37 0-1.93-.22-1.25-.5z"/><path d="M86.08 73.243c0-1.86.27-2.13 1.2-1.2.94.94.94 1.47 0 2.4-.93.94-1.2.67-1.2-1.2z"/><path d="M94.08 74.243c-.82-.53-1.05-.97-.5-.97s1.68.44 2.5.97c.83.54 1.05.97.5.97s-1.67-.43-2.5-.97z"/><path d="M89.08 73.853c0-.22.7-.66 1.56-.99.89-.34 1.29-.17.94.39-.59.95-2.5 1.41-2.5.6z"/><path d="M137.08 102.183c0-.58-.45-.78-1-.44s-1 .82-1 1.06.45.44 1 .44 1-.47 1-1.06z"/><path d="M187.184 102.093c4.38-1.49 9.073-4.76 8.396-5.85-.289-.47.493-1 1.739-1.18 4.686-.66 8.544-13.25 6.459-21.07-.642-2.41-1.219-2.75-4.675-2.75-2.517 0-4.588.67-5.731 1.85-.984 1.01-3.325 2.7-5.204 3.75-7.039 3.93-12.791 11.91-14.352 19.92-.532 2.72-.238 3.17 3.09 4.65 4.565 2.04 5.998 2.13 10.278.68z" fill="#ffce31"/><path d="M185.083 100.243c0-.55.45-1 1-1s1 .45 1 1-.45 1-1 1-1-.45-1-1z"/><path d="M178.117 99.213c-.019-.84.746-2.64 1.698-4 .953-1.36 1.681-2.69 1.619-2.97-.424-1.87 6.991-7 10.117-7 1.95 0-.232 2.49-4.468 5.1-2.75 1.69-5 3.66-5 4.38 0 1.96-3.925 6.41-3.966 4.49z"/><path d="M189.083 99.313c0-1.2 2.869-4.07 4.072-4.07 1.533 0 1.054 1.45-1.083 3.28-2.274 1.95-2.989 2.14-2.989.79z"/><path d="M198.099 91.493c-.009-1.24.434-2.25.984-2.25 1.253 0 1.253 1.06 0 3-.784 1.21-.972 1.07-.984-.75z"/><path d="M199.083 84.243c0-.55.45-1 1-1s1 .45 1 1-.45 1-1 1-1-.45-1-1z"/><path d="M82.58 100.243c-.34-.55-1.06-1-1.61-1s-.73.45-.39 1 1.07 1 1.62 1 .72-.45.38-1z" fill="#ffe6d5"/><path d="M79.65 56.153c3.73-3.93 7.19-5.72 11.96-6.21 2.14-.22 4.35-1.18 5.11-2.22 2.23-3.04 2.68-7.96 1.03-11.11-1.7-3.25-9.35-11.43-10.44-11.19-.4.09-2.88-.19-5.52-.63-6.66-1.1-13.01 1.39-16.11 6.3-3.87 6.17-4.78 10.2-3.57 15.86 1.65 7.69 9.8 15 10.08 9.04.1-2.07.19-2.03 1.19.5 1.4 3.53 2.65 3.47 6.27-.34z" fill="#fff"/><path d="M75.42 56.793c0-.8.37-1.23.83-.95.46.29.83.94.83 1.46s-.37.94-.83.94-.83-.65-.83-1.45z"/><path d="M68.7 54.773c-.92-1.39-1.31-2.53-.88-2.53.97 0 3.56 4.04 2.97 4.63-.24.24-1.18-.7-2.09-2.1z"/></svg>