<svg xmlns="http://www.w3.org/2000/svg" viewBox="0 0 212.33 102"><g data-name="Layer 2"><g data-name="Layer 1"><path d="M152.14 42.53V40.8A40.63 40.63 0 00111.66 0a39.89 39.89 0 00-25.3 9 40.35 40.35 0 00-7.08 7.34 30 30 0 00-18.22-6.14 30.86 30.86 0 00-30.7 30.6 30.6 30.6 0 000 61.2H142a30.58 30.58 0 0010.12-59.47z" fill="#406833"/><path d="M198.15 61v-1.2a28 28 0 00-27.91-28.12 27.5 27.5 0 00-17.44 6.19 27.21 27.21 0 00-4.88 5.06 20.68 20.68 0 00-12.56-4.22 21.27 21.27 0 00-21.16 21.1 21.1 21.1 0 000 42.19h77a21.07 21.07 0 007-41z" fill="#75b03a"/></g></g></svg>