<svg xmlns="http://www.w3.org/2000/svg" viewBox="0 0 64.98 72.78"><defs><style>.cls-1{fill:#fff}</style></defs><g id="Layer_2" data-name="Layer 2"><g id="Layer_1-2" data-name="Layer 1"><path class="cls-1" d="M6.4 31.88a8.78 8.78 0 01.91-12.32 8.62 8.62 0 0112.22.91 8.8 8.8 0 011.84 3.58 11.5 11.5 0 0115.42-5.41 11.68 11.68 0 015.37 15.54 11.93 11.93 0 01-2.59 3.51 10.23 10.23 0 013.91 13.86 9.51 9.51 0 01-1 1.49 10.26 10.26 0 014 2.7 8.66 8.66 0 0110.91 5.64 8.92 8.92 0 01.42 2.67H65v8.73H39a10.13 10.13 0 01-10-8.35 10.12 10.12 0 01-14.57-8.27A13.1 13.1 0 016.4 31.88z"/><path class="cls-1" d="M7.21 5.82A5.78 5.78 0 1013 0a5.8 5.8 0 00-5.79 5.82z"/><path class="cls-1" d="M50.53 43.67a4.34 4.34 0 104.34-4.37 4.36 4.36 0 00-4.34 4.37z"/><path class="cls-1" d="M4.32 64.05a2.89 2.89 0 102.89-2.91 2.9 2.9 0 00-2.89 2.91z"/></g></g></svg>